<?xml version="1.0" encoding="utf-8"?>
<!-- Generator: Adobe Illustrator 25.2.3, SVG Export Plug-In . SVG Version: 6.00 Build 0)  -->
<svg version="1.1" id="Capa_1" xmlns="http://www.w3.org/2000/svg" xmlns:xlink="http://www.w3.org/1999/xlink" x="0px" y="0px"
	 viewBox="0 0 400 400" style="enable-background:new 0 0 400 400;" xml:space="preserve">
<style type="text/css">
	.st0{fill:#E93338;}
	.st1{fill:#1A96A1;}
	.st2{fill:#079FA3;}
	.st3{fill:#FFFFFF;}
</style>
<g>
	<path class="st0" d="M398.26,177.31h-41.63l-22.78-20.12v106.05h-25.48c0-59.85-48.52-108.37-108.37-108.37
		c-59.85,0-108.37,48.52-108.37,108.37H66.15V157.19l-22.77,20.12H1.74L200,2.19L398.26,177.31z"/>
	<g>
		<path class="st1" d="M260.87,319.15c-0.43-3.12-0.9-6.93-1.33-10.05c-0.12-0.9-0.25-1.79-0.39-2.69
			c-0.07-0.44-0.06-1.02-0.69-0.96c-0.46,0.04-0.51,0.52-0.56,0.93c-0.66,5.68-1.33,11.35-1.99,17.03c-0.04,0.32-0.2,1.73-0.28,2.33
			c0,0-0.56-4.16-0.79-5.57c-0.43-2.63-0.69-5.28-1.04-7.92c-0.06-0.47,0.1-1.18-0.59-1.23c-0.71-0.06-0.64,0.64-0.75,1.11
			c-0.62,2.75-1.23,5.5-2.18,8.3c-0.54-2.21-1.09-4.41-1.63-6.62c-0.4-1.65-0.73-3.31-1.18-4.95c-0.11-0.4,0.06-1.18-0.73-1.12
			c-0.59,0.05-0.56,0.66-0.65,1.07c-0.6,2.53-1.17,5.07-1.72,7.62c-0.79,3.64-0.78,3.61-4.5,3.61c-1.25,0-2.13-0.38-2.88-1.4
			c-2.82-3.84-3.89-7.95-2.35-12.62c1.91-5.8,7.75-6.99,12.91-4.6c2.21,1,6.24,5.11,6.24,5.11s4.81-6.13,11.09-6.13
			c4.63-0.01,8.15,3.16,8.76,7.79c0.58,4.35-0.93,7.82-4.3,11.96c0,0-1.19,0.22-2.15-0.04c-0.63-0.17-0.74-0.98-0.87-1.6
			c-0.46-2.16-0.9-4.33-1.4-6.48c-0.11-0.46-0.1-1.21-0.69-1.25c-0.71-0.05-0.75,0.73-0.92,1.24
			C262.62,314.15,260.87,319.15,260.87,319.15z"/>
		<path class="st1" d="M239.49,321.14c1.14,0,1.79,0,2.71,0.02c1.67,0.03,2.5-0.34,2.74-2.1c0.3-2.13,0.88-4.21,1.32-6.32
			c0.09-0.45,0.58-1.86,0.58-1.86c0.63,2.61,1.35,5.62,1.95,8.13c0.33,1.38,0.64,2.76,0.95,4.14c0.1,0.43,0.1,1.02,0.68,1
			c0.55-0.02,0.58-0.59,0.68-1.03c0.54-2.37,1.97-8.1,1.97-8.1c0.62,4.76,1.2,9.13,1.76,13.5c0.03,0.22,0,0.46,0.04,0.68
			c0.1,0.54,0.07,1.33,0.7,1.38c0.85,0.07,0.62-0.82,0.68-1.3c0.68-5.51,2.37-18.35,2.37-18.35c0.3,2.01,0.71,4.65,0.98,6.54
			c0.17,1.23,0.27,2.47,0.47,3.7c0.07,0.46-0.02,1.18,0.67,1.2c0.57,0.02,0.55-0.63,0.69-1.04c0.8-2.4,1.79-5.3,2.69-8.05
			c0,0,0.74,3.79,1.09,5.28c0.36,1.56,0.23,3.08,2.98,2.72c-2.4,2.45-4.4,4.29-5.8,5.65c-5.48,5.3-8.52,8.36-8.52,8.36
			s-5.4-6-8.38-8.38C243.63,325.43,241.49,323.55,239.49,321.14z"/>
	</g>
	<g>
		<path class="st1" d="M139.71,235.17c1.48-4.44,0.08-9.76-3.38-12.69c-0.69-0.58-1.55-1.07-1.17-2.11
			c0.38-1.03,1.03-1.94,2.07-2.44c0.75-0.36,1.05,0.08,1.31,0.78c1.54,4.06,4.31,7.39,6.64,11.09c0.99-3.1,0.85-4.55-0.56-7.05
			c-0.37-0.65-0.69-1.55,0.52-1.28c1.65,0.37,3.27,0.32,5.05,0.14c0.34-0.03,0.55,0.36,0.34,0.63c-1.83,2.31-0.98,4.93-0.67,7.78
			c2.67-3.67,4.99-7.17,6.82-10.99c0.27-0.57,0.28-1.42,1.3-1.23c1.34,0.25,1.84,1.34,2.36,2.36c0.37,0.73-0.03,1.15-0.73,1.61
			c-1.97,1.3-2.25,3.33-0.84,5.08c1.2,1.49,3.44,1.59,4.92,0.24c1.5-1.37,1.35-3.71-0.45-5.19c-0.9-0.74-1.59-1.45-1.35-2.71
			c4.9,1.53,7.48,5.82,9.21,13.26c0.27,1.18,0.39,2.06,0.62,2.73H139.71z"/>
		<path class="st1" d="M135.94,202.59c-0.06-7.52,5.65-13.17,12.45-12.81c6.55,0.35,11.87,7.03,10.99,13.8
			c-0.58,4.52-1.64,8.76-4.84,12.35c-4.14,4.66-10.8,4.41-14.86-1.24C136.99,210.92,136.12,206.64,135.94,202.59z M156.44,202.72
			c-0.06-1.06-0.08-1.67-0.13-2.28c-0.24-2.57-0.79-3.01-3.24-2.23c-3.71,1.17-7.36,1.16-11.06-0.07c-2.16-0.72-2.68-0.25-3.01,2
			c-0.27,1.88,0.78,4.04-1.13,5.61c-0.12,0.1-0.02,0.53,0.03,0.79c0.57,2.63,1.4,5.15,3.16,7.24c3.35,3.96,7.31,4.65,11.14,1.89
			c3.32-2.39,4.7-5.9,5.3-9.79c0.04-0.26,0.02-0.75-0.05-0.76C155.52,204.74,156.55,203.29,156.44,202.72z"/>
		<path class="st1" d="M138.78,233.05c-0.2,0.91-0.78,0.98-1.49,1.04c-0.81,0.07-1.78-0.05-1.88,1.08h-2.74
			c-0.03-1.17-1.03-1.1-1.81-1.01c-1.26,0.13-1.57-0.57-1.65-1.54c-0.27-3.33,1.33-5.87,3.56-8.1c0.63-0.63,1.43-0.68,2.27-0.22
			C137.13,225.46,139.32,230.68,138.78,233.05z"/>
		<path class="st1" d="M133.92,219.06c-0.33,1.41-0.9,2.51-2.07,3.4c-3.41,2.61-4.98,8.54-3.51,12.71h-4.36
			c0.31-2.81,0.12-4.52,0.82-6.78C126.23,223.01,132.2,218.65,133.92,219.06z"/>
		<circle class="st1" cx="161.3" cy="224.69" r="1.74"/>
	</g>
	<g>
		<path class="st1" d="M268.39,221.81c0.95-0.1,1.42-0.15,1.99-0.21c-0.67-0.84-1.36-1.55-1.88-2.37
			c-2.28-3.59-2.55-7.62-2.55-11.73c0-3.65-0.26-7.28-1.8-10.67c-4.22-9.29-15.48-8.58-19.46-2.56c-1.49,2.25-2.54,4.6-3,7.25
			c-0.52,3.06-0.25,6.15-0.47,9.22c-0.29,3.85-0.96,7.57-4.17,10.24c-0.21,0.18-0.39,0.46-0.17,0.6c1.63,1.04,0.08,1.42-0.43,1.84
			c-3.67,3.07-5.7,6.91-5.76,11.73h3.65c0-4.34,0.65-8.39,4.67-11.11c1.26-0.85,1.39-2.54,2.26-3.73c0.98-1.35,2.11-2.36,3.76-2.73
			c0.44-0.1,1.01-0.45,1.22,0.29c0.16,0.59-0.18,0.97-0.73,1.07c-1.67,0.31-2.46,1.66-3.56,2.72c-1.3,1.25-0.27,2,0.45,2.43
			c2.03,1.23,3.01,2.89,3.58,5.21c0.48,1.95,1.1,3.82,1.04,5.84h12.95c0.05-0.56,0.09-1.17,0.86-1.16c0.87,0.01,1.24-0.28,1.18-1.17
			c-0.05-0.8,0.57-0.79,1.14-0.81c0.53-0.01,1.07,0.16,1,0.86c0.07,1.01,0.27,1.18,1.21,1.17c0.76-0.02,0.89,0.53,0.93,1.11h10.23
			C276.52,229.27,273.47,225.09,268.39,221.81z M245.89,214.46c-1.01-1.66-1.62-3.56-1.94-5.54c-0.21-1.32,0.06-1.88,1.45-2.09
			c4.64-0.71,8.74-2.79,12.66-5.27c0.57-0.36,1.16-1.26,1.88-0.71c0.68,0.53,0.92,1.61,0.56,2.39c-0.76,1.67,0.07,1.86,1.4,1.85
			c1.32-0.01,1.83,0.61,1.66,1.98c-0.55,4.26-1.88,8.14-5.27,11.01c-1.29,1.09-2.79,1.78-3.68,1.75
			C249.95,219.74,247.66,217.36,245.89,214.46z M259.61,223.92c-2.69,0.82-3.86,2.89-5.05,5c-0.83,1.47-1.37,1.23-1.97-0.06
			c-1.11-2.35-2.59-4.26-5.25-5.02c-0.82-0.24-1.47-0.85-2.14-1.9c0.49,0.04,0.72,0.04,0.94,0.08c2.58,0.45,2.58,0.45,1.89-2.2
			c3.76,2.44,7.42,2.62,11.02,0c0.44,2.32,2.37,0.53,3.4,1.37C262.16,222.75,260.72,223.58,259.61,223.92z M265.44,230.05
			c-1.59,0.21-2.92-0.49-3.63-1.95c-0.77-1.58-0.48-3.32,1-4.08c2.04-1.05,1.06-2.04,0.38-3.14c-0.42-0.67-0.95-1.28-1.75-1.57
			c-0.62-0.23-0.59-0.66-0.28-1.18c0.36-0.63,0.73-0.18,1.08-0.06c0.23,0.08,0.45,0.22,0.63,0.38c2.3,2.02,2.96,5.21,5.17,7.29
			c0.19,0.18,0.16,0.58,0.19,0.69C268.27,228.23,267.08,229.84,265.44,230.05z"/>
		<path class="st1" d="M245.51,235.17h-9.64c-0.26-2.95,0.29-5.56,2.56-7.8c1.88-1.85,3.04-1.84,4.78,0.2
			C245.13,229.83,245.67,232.37,245.51,235.17z"/>
	</g>
	<g>
		<path class="st1" d="M163.73,328.92c-2.42-2.54-5.08-4.71-8.46-5.85c-0.5-0.17-1.72-0.56-1.72-0.56s0.99-1.15,1.39-1.54
			c2.84-2.79,4.04-5.21,3.22-8.88c-1.04-4.66-2.32-9.23-4.47-13.53c-0.28-0.56-0.85-0.95-1.32-1.19c-4.01-2-8.12-1.72-12.31-0.48
			c-1.11,0.33-2.15,0.93-2.49,2.14c-0.62,2.21-1.08,3.43-1.98,5.02c-1.17,2.06-0.87,4.51-1.66,6.73c-1.6,4.48-0.26,8.16,3.56,10.97
			c0.26,0.19,0.51,0.39,1.01,0.78c-3.9,1.65-7.08,3.72-9.78,6.49c-0.48,0.49-1.07,1.11-0.41,1.76c0.67,0.66,1.24,0.01,1.74-0.45
			c1.52-1.37,3.01-2.77,4.56-4.1c0.95-0.81,1.92-0.96,2.79,0.23c2.74,3.77,6.75,6.63,8.17,11.35c0.12,0.4,0.3,0.78,0.84,0.71
			c0.44-0.06,0.47-0.43,0.58-0.74c1.46-4.43,4.42-7.91,7.28-11.46c1.04-1.29,2.04-1.25,3.34-0.44c1.87,1.16,3.5,2.6,5.08,4.09
			c0.43,0.41,0.86,0.79,1.36,0.17C164.4,329.67,164.09,329.3,163.73,328.92z M138.8,299.85c0.11-0.89,0.72-1.38,1.57-1.68
			c3.58-1.24,7.35-0.9,10.87,0.15c0.89,0.26,1.68,2.92,1.89,5.96c-5.36-1.89-9.81-2.22-14.75,0.19
			C138.54,302.66,138.62,301.25,138.8,299.85z M137.46,311.56c0.3-4.5,1.53-6.43,5.21-7.18c1.22-0.25,2.04-0.13,2.44,1.35
			c0.42,1.6,0.79,2.99,3.14,3.55c1.7,0.4,3.31,2.16,5.31,2.75c0.78,0.23,0.55,1.04,0.36,1.6c-1.44,4.27-4.6,7.05-8.9,6.64
			C140.68,319.85,137.37,315.91,137.46,311.56z M139.69,326.76c-0.65-0.58-1.15-1.31-1.72-1.98c2.3-1.46,2.47-1.41,3.44,0.99
			c0.48,1.18,0.93,2.37,1.39,3.56C141.23,329.13,140.69,327.65,139.69,326.76z M146.19,328.53c-1.37,0.01-2.34-0.46-2.91-1.97
			c-1.41-3.73-1.46-3.75,3.08-3.72c3.8,0.14,3.83-0.59,2.44,3.64C148.34,327.9,147.53,328.51,146.19,328.53z M153.12,325.41
			c-1.21,1.47-2.46,2.9-4.1,4.82c0.81-2.37,1.34-4.21,2.08-5.97c0.53-1.26,1.58-0.4,2.24-0.11
			C154.21,324.54,153.41,325.06,153.12,325.41z"/>
		<path class="st2" d="M146.92,300.05c-0.01,0.39-0.27,0.63-0.71,0.63c-0.26,0-0.34,0.07-0.34,0.34c0,0.48-0.23,0.71-0.61,0.72
			c-0.38,0-0.62-0.24-0.63-0.7c-0.01-0.24-0.04-0.35-0.33-0.36c-0.42,0-0.66-0.27-0.65-0.63c0.01-0.36,0.23-0.59,0.65-0.58
			c0.33,0.01,0.41-0.1,0.41-0.41c-0.01-0.41,0.27-0.68,0.62-0.68c0.33,0,0.61,0.25,0.61,0.64c0,0.36,0.12,0.45,0.46,0.46
			C146.75,299.49,146.89,299.77,146.92,300.05z"/>
	</g>
	<g>
		<path class="st3" d="M159.39,115h-16.43l-2.28,7.73h-14.78l17.61-46.84h15.79l17.6,46.84h-15.16L159.39,115z M156.38,104.88
			l-5.17-16.84l-5.12,16.84H156.38z"/>
	</g>
	<g>
		<path class="st3" d="M180.45,47.17h38.81c8.45,0,14.78,2.01,19,6.03c4.21,4.02,6.31,9.74,6.31,17.16c0,7.63-2.29,13.59-6.88,17.89
			c-4.59,4.3-11.59,6.44-21,6.44h-12.78v28.04h-23.45V47.17z M203.91,79.39h5.72c4.5,0,7.66-0.78,9.48-2.35
			c1.82-1.56,2.73-3.56,2.73-6.01c0-2.37-0.79-4.38-2.37-6.03c-1.58-1.65-4.55-2.47-8.92-2.47h-6.65V79.39z"/>
	</g>
	<g>
		<g>
			<path class="st3" d="M243.94,99.13h14.44v27.91c0,2.77-0.43,5.38-1.29,7.84c-0.86,2.46-2.22,4.61-4.06,6.45
				c-1.84,1.84-3.78,3.13-5.8,3.88c-2.81,1.04-6.19,1.56-10.13,1.56c-2.28,0-4.77-0.16-7.46-0.48c-2.7-0.32-4.95-0.95-6.76-1.9
				c-1.81-0.95-3.47-2.29-4.97-4.04c-1.5-1.75-2.53-3.54-3.08-5.4c-0.9-2.98-1.34-5.62-1.34-7.92V99.13h14.44v28.57
				c0,2.55,0.71,4.55,2.12,5.99c1.42,1.44,3.38,2.15,5.9,2.15c2.49,0,4.45-0.71,5.86-2.12c1.42-1.42,2.12-3.42,2.12-6.02V99.13z"/>
		</g>
	</g>
	<g>
		<g>
			<path class="st3" d="M125.89,141.27l4.85-0.3c0.11,0.79,0.32,1.39,0.64,1.8c0.53,0.67,1.28,1,2.25,1c0.73,0,1.29-0.17,1.68-0.51
				s0.59-0.74,0.59-1.19c0-0.43-0.19-0.81-0.56-1.15c-0.38-0.34-1.25-0.66-2.61-0.96c-2.24-0.5-3.83-1.17-4.79-2
				c-0.96-0.83-1.44-1.9-1.44-3.19c0-0.85,0.25-1.65,0.74-2.4c0.49-0.75,1.23-1.35,2.22-1.78c0.99-0.43,2.34-0.65,4.06-0.65
				c2.11,0,3.72,0.39,4.83,1.18c1.11,0.78,1.77,2.03,1.98,3.74l-4.81,0.28c-0.13-0.74-0.4-1.28-0.81-1.62
				c-0.41-0.34-0.97-0.51-1.69-0.51c-0.59,0-1.04,0.13-1.34,0.38c-0.3,0.25-0.45,0.56-0.45,0.92c0,0.26,0.12,0.5,0.37,0.71
				c0.24,0.22,0.81,0.42,1.71,0.61c2.23,0.48,3.83,0.97,4.79,1.46c0.96,0.49,1.67,1.1,2.11,1.83c0.44,0.73,0.66,1.54,0.66,2.44
				c0,1.06-0.29,2.03-0.88,2.93c-0.59,0.89-1.4,1.57-2.46,2.03c-1.05,0.46-2.38,0.69-3.97,0.69c-2.81,0-4.75-0.54-5.83-1.62
				C126.64,144.31,126.03,142.94,125.89,141.27z"/>
			<path class="st3" d="M153.58,144.01h-5.79l-0.8,2.72h-5.21l6.2-16.51h5.56l6.2,16.51h-5.34L153.58,144.01z M152.52,140.44
				l-1.82-5.93l-1.8,5.93H152.52z"/>
			<path class="st3" d="M161.37,130.23h5.1v12.44h7.96v4.06h-13.06V130.23z"/>
			<path class="st3" d="M186.9,130.23h5.09v9.84c0,0.98-0.15,1.9-0.46,2.76c-0.3,0.87-0.78,1.62-1.43,2.27
				c-0.65,0.65-1.33,1.1-2.04,1.37c-0.99,0.37-2.18,0.55-3.57,0.55c-0.8,0-1.68-0.06-2.63-0.17c-0.95-0.11-1.74-0.34-2.38-0.67
				c-0.64-0.33-1.22-0.81-1.75-1.42c-0.53-0.62-0.89-1.25-1.09-1.9c-0.32-1.05-0.47-1.98-0.47-2.79v-9.84h5.09v10.07
				c0,0.9,0.25,1.6,0.75,2.11c0.5,0.51,1.19,0.76,2.08,0.76c0.88,0,1.57-0.25,2.07-0.75s0.75-1.21,0.75-2.12V130.23z"/>
			<path class="st3" d="M195.44,130.23h7.58c1.49,0,2.7,0.2,3.62,0.61c0.92,0.41,1.68,0.99,2.28,1.75c0.6,0.76,1.04,1.64,1.31,2.65
				c0.27,1.01,0.41,2.07,0.41,3.2c0,1.76-0.2,3.13-0.6,4.1c-0.4,0.97-0.96,1.79-1.67,2.44c-0.71,0.66-1.48,1.09-2.3,1.31
				c-1.12,0.3-2.13,0.45-3.04,0.45h-7.58V130.23z M200.54,133.97v9.02h1.25c1.07,0,1.82-0.12,2.27-0.35
				c0.45-0.24,0.8-0.65,1.06-1.24s0.38-1.54,0.38-2.87c0-1.75-0.29-2.95-0.86-3.59c-0.57-0.65-1.52-0.97-2.84-0.97H200.54z"/>
		</g>
	</g>
	<polygon class="st0" points="286.58,235.17 286.58,291.3 228.06,291.3 228.06,349.81 171.94,349.81 171.94,291.3 113.43,291.3 
		113.43,235.17 171.94,235.17 171.94,176.66 228.06,176.66 228.06,235.17 	"/>
	<g>
		<path class="st2" d="M86.98,288l2.34,7.36l-10.12,6.34l11.92-0.68l2.34,7.36l-18.12,5.76l-1.46-4.58l13.82-4.39l-14.94,0.86
			l-1.32-4.15l12.7-7.92l-13.82,4.39l-1.46-4.58L86.98,288z"/>
		<path class="st2" d="M94.66,310.52l7.4,13.89l-3.58,1.91l-4.63-8.7l-2.67,1.42l4.3,8.07l-3.42,1.82l-4.3-8.07l-3.31,1.76
			l4.77,8.95l-3.8,2.02l-7.53-14.15L94.66,310.52z"/>
		<path class="st2" d="M103.31,326.39l5.29,6.94c1.04,1.37,1.7,2.61,1.97,3.74c0.27,1.12,0.27,2.23-0.01,3.31
			c-0.28,1.08-0.78,2.09-1.51,3.04c-0.73,0.95-1.61,1.82-2.65,2.6c-1.62,1.23-3.01,2-4.18,2.31c-1.17,0.31-2.31,0.37-3.41,0.18
			c-1.1-0.19-2.03-0.59-2.8-1.19c-1.06-0.81-1.9-1.64-2.54-2.47l-5.29-6.94L103.31,326.39z M103.45,333.68l-8.26,6.3l0.87,1.14
			c0.74,0.98,1.38,1.59,1.91,1.84c0.53,0.25,1.15,0.28,1.87,0.1c0.72-0.18,1.68-0.73,2.89-1.65c1.6-1.22,2.5-2.32,2.69-3.29
			c0.19-0.97-0.17-2.06-1.09-3.27L103.45,333.68z"/>
		<path class="st2" d="M115.79,341.86l4.13,4.2l-13.55,13.33l-4.13-4.2L115.79,341.86z"/>
		<path class="st2" d="M125.11,365.17l3.08,4.41c-1.17,0.92-2.34,1.53-3.52,1.83c-1.18,0.3-2.36,0.3-3.53,0.01
			c-1.17-0.3-2.42-0.97-3.76-2.03c-1.62-1.28-2.76-2.56-3.42-3.84c-0.66-1.28-0.89-2.81-0.7-4.59c0.19-1.78,1.02-3.59,2.48-5.44
			c1.95-2.47,4.1-3.85,6.46-4.14c2.36-0.29,4.74,0.51,7.14,2.41c1.88,1.48,3.06,3.03,3.53,4.64c0.48,1.61,0.35,3.41-0.37,5.39
			l-4.79-2.31c0.22-0.57,0.33-1.02,0.34-1.35c0.02-0.56-0.08-1.08-0.3-1.56c-0.22-0.48-0.57-0.91-1.03-1.27
			c-1.05-0.82-2.18-1.04-3.4-0.64c-0.91,0.29-1.9,1.11-2.95,2.44c-1.31,1.65-1.95,2.99-1.93,4c0.02,1.01,0.48,1.87,1.39,2.59
			c0.88,0.7,1.74,0.97,2.59,0.84C123.27,366.41,124.17,365.95,125.11,365.17z"/>
		<path class="st2" d="M132.29,368.42c1.47-2.73,3.38-4.45,5.72-5.15c2.34-0.7,4.87-0.32,7.59,1.14c2.79,1.5,4.53,3.4,5.23,5.71
			c0.7,2.31,0.33,4.81-1.12,7.5c-1.05,1.96-2.25,3.38-3.58,4.28c-1.33,0.9-2.81,1.36-4.43,1.39c-1.62,0.03-3.36-0.46-5.21-1.46
			c-1.89-1.02-3.29-2.16-4.2-3.43c-0.91-1.27-1.4-2.76-1.47-4.47C130.74,372.22,131.24,370.38,132.29,368.42z M137.45,371.23
			c-0.91,1.69-1.25,3.07-1.02,4.15c0.23,1.08,0.89,1.91,1.97,2.49c1.11,0.6,2.17,0.7,3.16,0.31c1-0.4,2-1.53,3.01-3.4
			c0.85-1.58,1.15-2.9,0.91-3.97c-0.24-1.07-0.91-1.9-2-2.48c-1.04-0.56-2.08-0.64-3.11-0.25
			C139.34,368.48,138.37,369.53,137.45,371.23z"/>
		<path class="st2" d="M150.97,381.72l5.41,1.45c-0.18,0.9-0.16,1.63,0.04,2.2c0.33,0.92,1.02,1.56,2.09,1.92
			c0.79,0.27,1.47,0.29,2.03,0.06c0.56-0.23,0.92-0.59,1.08-1.08c0.16-0.47,0.09-0.95-0.19-1.46c-0.29-0.51-1.12-1.17-2.5-2
			c-2.26-1.37-3.75-2.69-4.49-3.94c-0.74-1.26-0.88-2.6-0.4-4.01c0.31-0.93,0.87-1.71,1.69-2.35c0.81-0.64,1.84-1.02,3.07-1.13
			c1.24-0.11,2.79,0.15,4.67,0.78c2.3,0.77,3.91,1.79,4.83,3.06c0.92,1.26,1.18,2.87,0.78,4.81l-5.35-1.46
			c0.13-0.86,0.04-1.55-0.28-2.07c-0.32-0.52-0.88-0.91-1.66-1.18c-0.65-0.22-1.18-0.24-1.6-0.08c-0.42,0.16-0.7,0.44-0.83,0.84
			c-0.1,0.29-0.05,0.59,0.15,0.91c0.18,0.33,0.73,0.76,1.65,1.29c2.26,1.34,3.82,2.46,4.69,3.35c0.87,0.89,1.41,1.81,1.63,2.77
			c0.21,0.96,0.15,1.93-0.18,2.91c-0.39,1.15-1.07,2.11-2.03,2.87c-0.97,0.76-2.11,1.2-3.43,1.32c-1.32,0.12-2.85-0.12-4.59-0.7
			c-3.06-1.03-4.99-2.33-5.77-3.91C150.68,385.31,150.52,383.59,150.97,381.72z"/>
		<path class="st2" d="M191.52,394.05l-6.64-0.59l-1.2,3.04l-5.97-0.53l8.8-18.3l6.38,0.57l5.43,19.57l-6.13-0.55L191.52,394.05z
			 M190.67,389.85l-1.48-6.99l-2.67,6.62L190.67,389.85z"/>
		<path class="st2" d="M209.07,378.36l8.63-1.3c1.7-0.26,3.11-0.23,4.23,0.07c1.12,0.3,2.08,0.84,2.9,1.6
			c0.81,0.76,1.46,1.69,1.94,2.79c0.48,1.1,0.82,2.29,1.01,3.57c0.3,2.01,0.31,3.6,0.02,4.78c-0.29,1.18-0.79,2.2-1.49,3.07
			c-0.7,0.87-1.5,1.5-2.39,1.89c-1.22,0.53-2.35,0.88-3.38,1.03l-8.63,1.3L209.07,378.36z M215.52,381.74l1.54,10.27l1.42-0.21
			c1.21-0.18,2.06-0.45,2.53-0.79c0.47-0.35,0.8-0.88,0.99-1.59c0.19-0.71,0.17-1.82-0.05-3.33c-0.3-1.99-0.83-3.31-1.59-3.94
			c-0.76-0.64-1.89-0.84-3.4-0.62L215.52,381.74z"/>
		<path class="st2" d="M230.48,384.58c-0.99-2.94-0.94-5.51,0.15-7.7c1.09-2.19,3.09-3.78,6.02-4.76c3-1.01,5.58-0.98,7.74,0.08
			c2.16,1.06,3.73,3.05,4.71,5.95c0.71,2.11,0.94,3.95,0.68,5.54c-0.26,1.59-0.93,2.98-2.01,4.18c-1.09,1.2-2.63,2.14-4.63,2.81
			c-2.03,0.68-3.82,0.93-5.37,0.73c-1.55-0.2-2.97-0.86-4.27-1.98C232.19,388.3,231.19,386.69,230.48,384.58z M236.05,382.73
			c0.61,1.82,1.39,3.01,2.33,3.58c0.94,0.57,2,0.66,3.16,0.26c1.2-0.4,1.99-1.1,2.38-2.1c0.39-1,0.25-2.51-0.43-4.52
			c-0.57-1.7-1.33-2.82-2.28-3.37c-0.95-0.55-2.01-0.63-3.18-0.24c-1.12,0.38-1.89,1.08-2.3,2.1
			C235.33,379.47,235.43,380.9,236.05,382.73z"/>
		<path class="st2" d="M247.71,368.64l6.71-3.83l8.32,8.57l-3.16-11.51l6.71-3.82l9.42,16.51l-4.18,2.38l-7.18-12.59l3.96,14.43
			l-3.78,2.16l-10.39-10.76l7.18,12.59l-4.18,2.38L247.71,368.64z"/>
		<path class="st2" d="M268.4,355.96l4.64-3.62l11.69,14.99l-4.64,3.62L268.4,355.96z"/>
		<path class="st2" d="M292.62,349.36l4.73-2.55c0.78,1.26,1.25,2.5,1.41,3.71c0.16,1.21,0.03,2.38-0.4,3.51
			c-0.43,1.13-1.24,2.3-2.44,3.5c-1.46,1.46-2.86,2.45-4.21,2.95c-1.35,0.51-2.89,0.56-4.64,0.17s-3.45-1.42-5.12-3.08
			c-2.23-2.22-3.35-4.52-3.37-6.89c-0.02-2.38,1.05-4.65,3.21-6.82c1.69-1.7,3.36-2.69,5.01-2.98c1.65-0.29,3.42,0.04,5.32,0.98
			l-2.84,4.49c-0.54-0.28-0.97-0.44-1.3-0.49c-0.55-0.08-1.08-0.04-1.59,0.12c-0.51,0.17-0.97,0.46-1.38,0.87
			c-0.94,0.94-1.28,2.04-1.02,3.3c0.18,0.94,0.88,2.01,2.09,3.21c1.49,1.49,2.74,2.28,3.75,2.38c1.01,0.1,1.92-0.26,2.73-1.09
			c0.79-0.8,1.17-1.62,1.13-2.47C293.65,351.33,293.29,350.39,292.62,349.36z"/>
		<path class="st2" d="M289.42,335.9l3.6-4.66l15.05,11.61l-3.6,4.66L289.42,335.9z"/>
		<path class="st2" d="M295.11,328.58l3.04-5.03l12.27,7.41l4.74-7.85l4.01,2.42l-7.77,12.88L295.11,328.58z"/>
		<path class="st2" d="M303.58,313.75l2.45-5.35l17.29,7.9l-2.45,5.35L303.58,313.75z"/>
		<path class="st2" d="M316.46,308.99c-2.97-0.9-5.03-2.43-6.18-4.59s-1.28-4.71-0.38-7.66c0.92-3.03,2.44-5.11,4.57-6.26
			c2.12-1.14,4.65-1.27,7.58-0.38c2.13,0.65,3.76,1.53,4.9,2.66c1.14,1.13,1.89,2.48,2.23,4.07c0.35,1.58,0.21,3.38-0.4,5.4
			c-0.62,2.05-1.47,3.65-2.53,4.79c-1.06,1.15-2.43,1.92-4.1,2.33C320.48,309.76,318.58,309.64,316.46,308.99z M318.19,303.38
			c1.84,0.56,3.26,0.62,4.27,0.18c1.01-0.44,1.69-1.25,2.05-2.42c0.37-1.21,0.26-2.26-0.33-3.16c-0.58-0.9-1.89-1.66-3.93-2.28
			c-1.71-0.52-3.07-0.56-4.07-0.1c-1,0.45-1.68,1.27-2.04,2.45c-0.34,1.13-0.22,2.17,0.37,3.1
			C315.11,302.07,316.34,302.82,318.19,303.38z"/>
	</g>
	<g>
		<g>
			<path class="st2" d="M200,154.87c-59.85,0-108.37,48.52-108.37,108.37c0,59.85,48.52,108.37,108.37,108.37
				c59.85,0,108.37-48.52,108.37-108.37C308.37,203.38,259.85,154.87,200,154.87z M295.57,303.61
				c-5.22,12.35-12.7,23.45-22.23,32.97c-9.53,9.53-20.62,17.01-32.98,22.23c-12.78,5.41-26.36,8.15-40.37,8.15
				c-14,0-27.58-2.74-40.37-8.15c-12.35-5.22-23.44-12.7-32.97-22.23c-9.53-9.52-17.01-20.62-22.23-32.97
				c-5.4-12.78-8.15-26.37-8.15-40.37c0-14,2.74-27.58,8.15-40.37c5.22-12.35,12.7-23.44,22.23-32.97s20.62-17.01,32.97-22.23
				c12.79-5.41,26.37-8.15,40.37-8.15c14.01,0,27.59,2.74,40.37,8.15c12.35,5.22,23.45,12.7,32.98,22.23
				c9.52,9.53,17,20.62,22.23,32.97c5.41,12.79,8.15,26.37,8.15,40.37C303.73,277.24,300.98,290.82,295.57,303.61z"/>
		</g>
	</g>
</g>
</svg>
